<?xml version="1.0" encoding="utf-8"?>
<!-- Generator: Adobe Illustrator 22.1.0, SVG Export Plug-In . SVG Version: 6.00 Build 0)  -->
<svg version="1.1" id="Layer_1" xmlns="http://www.w3.org/2000/svg" xmlns:xlink="http://www.w3.org/1999/xlink" x="0px" y="0px"
	 viewBox="0 0 271 296.4" style="enable-background:new 0 0 271 296.4;" xml:space="preserve">
<style type="text/css">
	.st0{fill:#FFFFFF;}
</style>
<g>
	<path class="st0" d="M197.8,223.4C197.8,223.4,197.8,223.4,197.8,223.4c-0.1,0-0.2,0-0.3,0C197.6,223.4,197.7,223.4,197.8,223.4z"
		/>
	<path class="st0" d="M270.9,148.5c0-16.6,0-33.1,0-49.7c0-18.9-12.4-36.3-28.5-45.2c-18.6-10.2-36.7-21.1-55.2-31.6
		c-9.7-5.6-19.1-11.8-29.2-16.7c-13.9-6.6-28.2-7-42.5-1.2L27,54.7C9.6,64.9,0.4,80.2,0.2,100.3c-0.3,32.2-0.1,64.4-0.1,96.6
		c0,21.2,13,37.1,30.5,47.3c26.2,15.1,52.4,30.3,78.6,45.4c21.1,12.2,41.4,6.5,61.1-4.9c25-14.4,50.1-28.6,74.9-43.3
		c16.8-10,25.5-25.3,25.7-45C271.1,180.4,270.9,164.5,270.9,148.5z M49.2,183.9c-0.1,0-0.3-0.1-0.7-0.3c0.7-0.9,1.3-1.7,2-2.5
		c5.2-6.2,10.4-12.4,15.5-18.6c1.3-1.6,2.7-2.2,4.7-2.2c6.5,0.1,13,0,19.5,0c2.2,0,4.3,0,6.3-1.1c3.2-1.7,4.6-4.4,4.8-7.9
		c0.1-3.5-1.2-6-4.4-7.7c-8.7-4.6-17.9-8-26.6-12.5c-10.8-5.5-16.3-14.4-16.1-26.5c0.1-7.9,3.8-14.4,9.6-19.6
		c5.9-5.3,13-8.5,20.6-10.7c1.2-0.3,2.5-0.5,3.7-0.5c14.4,0,28.8,0,43.2,0c0.3,0,0.6,0.1,1.6,0.1c-4.6,5-8.8,9.6-13,14.2
		c-1.2,1.3-2.5,2.5-3.5,3.9c-2,2.9-4.8,3.6-8.2,3.5c-5.7-0.2-11.5-0.1-17.2,0.1c-4.3,0.1-7.1,2.5-8.8,6.3c-1.5,3.5-0.5,6,2.8,8
		c6.8,4.2,14.3,7,21.4,10.6c4.5,2.3,8.6,4.9,12.6,8c7.5,5.9,10.3,13.8,9.9,22.9c-0.8,18.5-13,30.8-31.4,32
		C81.4,184.5,65.3,183.8,49.2,183.9z M85.9,223.3c-0.1,3.7-2.1,6.3-5.3,7.4c-1.7,0.6-2.6,0.5-2.5-1.7c0.1-3.2,0-6.3,0.1-9.5
		c0-1.3-0.4-1.8-1.7-1.7c-3.4,0.1-6.8,0.1-10.2,0c-1.5,0-1.8,0.7-1.7,2c0.1,3.1-0.1,6.2,0.1,9.2c0.1,2.2-0.9,2.3-2.6,1.8
		c-3.2-0.9-5.3-3.7-5.4-7.3c-0.1-4.2,0-8.5,0-12.7c0-4.2,0.1-8.5,0-12.7c0-1.7,0.5-2.2,2.2-1.7c2.9,0.9,5,3.1,5.5,6.1
		c0.1,0.4,0,0.8,0.1,1.2c0.3,1.9-0.8,4.4,0.5,5.5c1.4,1.3,4,0.4,6,0.4c2.2,0.1,5,0.7,6.6-0.3c1.9-1.2,0.4-4.1,0.7-6.2
		c0.4-3.3,2.6-5.9,5.7-6.8c1.5-0.4,2.2-0.2,2.2,1.5C85.9,206.3,86,214.8,85.9,223.3z M120.1,231.3c-4.3,0.1-7.5-1.3-9.3-5.6
		c-1.7-4-3.9-7.9-6-12.1c-1.6,3.4-3.1,6.5-4.7,9.9c1.9,0,3.5,0,5.1,0c1.2,0,1.4,0.5,1.3,1.5c-0.4,2.8-3.1,5.6-5.9,6
		c-3.9,0.5-7.8,0.2-11.7,0.3c-1.3,0-1.4-0.5-0.8-1.5c5.6-11.1,11.1-22.3,16.9-33.7c3,5.9,5.8,11.6,8.6,17.2
		c2.6,5.3,5.2,10.6,7.9,15.8C122.2,230.6,122.3,231.2,120.1,231.3z M151.8,225.7c-7.9,8.9-23.9,6.5-28.7-4.4
		c-1.2-2.8-1.9-5.6-1.7-9.4c0.7-6.5,4.2-11.9,11-14.6c6.6-2.7,12.7-1.5,18.2,3c2.7,2.2,2.4,3.7-0.9,4.9c-2.3,0.9-4.5,0.4-6.7-0.5
		c-6.4-2.6-12.5,0.9-13.6,7.6c-1.1,6.5,5.1,12.4,11.6,10.9c1.2-0.3,2.3-0.8,3.5-1.3c2.6-1,4.9-0.4,7.1,1
		C152.8,223.8,152.8,224.6,151.8,225.7z M182.1,230.9c-6.1,1.8-12.9-6.7-16.2-10.9c-2.1-2.7-1.6,4.8-1.6,5.3c0,2.8,1,6.7-3.1,5.2
		c-2.7-1-4.6-3.7-4.7-6.6c0-1.4,0.1-13.2-0.2-13.2c0-0.4,0-0.8,0-1c0-4,0-8,0-11.9c0-3.2,3.8-1.3,5.1-0.1c2,1.9,2.5,4.6,2.7,7.2
		c0.2,2.5,5.8-3.8,6.3-4.3c2.4-2.5,4.9-5.2,8.7-4.8c4.2,0.5,4.6,2.2,1.9,4.8c-2.9,2.8-5.6,5.6-8.5,8.4c-3.7,3.5-1.8,4.3,1.5,7.5
		c3,2.9,5.8,5.9,8.8,8.8C185.2,228,186.3,229.7,182.1,230.9z M216.3,223.3c-2.2,8.7-12.1,8.4-19.3,7.9c-4-0.3-7.2-1.7-8.3-5.9
		c-0.9-3.3,7.2-1.9,9.2-1.9c0.1,0,0.2,0,0.3,0c0.1,0,0.1,0,0.2,0c0.2,0,0.3,0,0,0c-0.1,0-0.1,0-0.2,0c-0.1,0-0.2,0-0.3,0
		c2.5,0,9.4,1.3,10.7-1.7c2.2-4.9-5-4.3-7.5-4.3c-7.4,0-14-4.5-12.5-12.8c1.6-8.9,10.3-8.8,17.5-8.7c3,0,8.9-1.4,7,3.3
		c-1.6,3.7-5.5,4.5-9.1,4.5c-2.5,0-7.8-0.9-7.7,3.1c0.1,4.2,6.8,2.8,9.4,2.9C212.8,210.1,218.2,215.9,216.3,223.3z M225,156.5
		c-6.7,15.1-19,23-34.9,26c-7.5,1.4-15.1,1.4-22.6,1.5c-8.2,0-16.5-0.1-24.7,0c-1.7,0-2.3-0.4-2.3-2.2c0.1-6.7,0.1-13.3,0-20
		c0-1.9,0.5-2.4,2.4-2.4c10,0.1,20,0.1,30,0c4.3,0,8.6-0.3,12.9-1.4c8.4-2.1,13.9-7.2,16.4-15.5c3.3-11,2.7-21.6-2.6-31.9
		c-4.2-8.1-10.5-12.7-19.8-12.6c-4.8,0.1-9.7,0.1-14.5,0c-1.9,0-2.2,0.6-2.1,2.3c0.1,5.2,0,10.3,0.1,15.5c0,1.6-0.3,2.3-2.1,2.3
		c-6.1-0.1-12.2-0.1-18.2,0c-1.8,0-2.2-0.5-2.2-2.3c0.1-6.7,0-13.5,0-20.2c0-6.7,0-13.3,0-20c0-1.6,0.3-2.4,2.2-2.4
		c14.1,0,28.1-0.7,42.2,0.4c20.9,1.6,35.1,13.2,42.2,32.3C233.4,122.8,232.3,140.1,225,156.5z"/>
	<path class="st0" d="M197.2,223.4C197.2,223.4,197.2,223.4,197.2,223.4C197.2,223.4,197.2,223.4,197.2,223.4z"/>
</g>
</svg>
